<svg height="16" width="16" viewBox="0 0 512 512" xmlns="http://www.w3.org/2000/svg">
    <path d="m413 332c2 2 3 4 3 6 0 2-1 4-3 6l-21 22c-2 1-4 2-6 2-2 0-4-1-6-2l-76-77-76 77c-2 1-4 2-6 2-2 0-4-1-6-2l-21-22c-2-2-3-4-3-6 0-2 1-4 3-6l76-76-77-76c-3-3-3-9 0-12l22-22c2-1 4-2 6-2 2 0 4 1 6 2l76 76 76-76c2-1 4-2 6-2 2 0 4 1 6 2l22 22c3 3 3 9 0 12l-77 76z m86-238c-9-9-20-14-33-14l-298 0c-24 0-44 9-58 28l-110 148 110 146 1 1 0 0c7 9 14 16 23 20 10 6 21 9 34 9l298 0c26 0 46-22 46-49l0-256c0-13-4-25-13-33z m-19 289c0 9-5 17-14 17l-298 0c-15 0-24-7-32-16l-96-128 96-128c10-13 21-16 32-16l298 0c8 0 14 6 14 15z"></path>
</svg>
